<?xml version="1.0" standalone="no"?>
<!DOCTYPE svg PUBLIC "-//W3C//DTD SVG 20010904//EN"
 "http://www.w3.org/TR/2001/REC-SVG-20010904/DTD/svg10.dtd">
<svg version="1.0" xmlns="http://www.w3.org/2000/svg"
 width="822.000000pt" height="482.000000pt" viewBox="0 0 822.000000 482.000000"
 preserveAspectRatio="xMidYMid meet">
<metadata>
Created by potrace 1.15, written by Peter Selinger 2001-2017
</metadata>
<g transform="translate(0.000000,482.000000) scale(0.100000,-0.100000)"
fill="#000000" stroke="none">
<path d="M4388 4808 c-8 -5 -1 -6 17 -3 28 5 29 5 6 -5 -14 -6 -31 -8 -38 -5
-8 2 -12 1 -9 -4 8 -12 -450 -175 -465 -166 -7 5 -10 4 -6 -2 7 -12 -462 -186
-505 -187 -14 -1 -24 -4 -22 -8 6 -10 -64 -30 -77 -22 -7 4 -9 3 -6 -3 4 -6
-53 -32 -143 -64 l-150 -53 -1 -85 c-2 -68 -3 -78 -9 -46 l-7 40 -1 -35 c-3
-61 5 -63 98 -30 46 17 89 29 97 26 8 -3 12 -2 8 3 -6 11 91 45 105 36 5 -3
18 -1 27 5 16 9 15 10 -4 5 -45 -12 -22 3 37 24 33 12 68 20 78 17 9 -3 24 -1
32 5 12 8 10 9 -7 4 -46 -13 -21 3 37 24 33 12 68 20 78 17 9 -3 24 -1 32 5
11 8 9 9 -10 3 -54 -15 -9 7 85 41 54 20 105 33 112 31 8 -3 12 -2 8 3 -7 12
61 35 76 25 8 -5 9 -3 4 6 -6 10 -1 11 21 6 19 -4 24 -3 15 2 -9 7 5 16 53 32
36 12 70 19 76 15 5 -3 18 -1 27 5 16 9 15 10 -4 5 -45 -12 -22 3 37 24 33 12
68 20 78 17 9 -3 24 -1 32 5 11 8 9 9 -10 3 -64 -17 0 11 139 61 l152 55 146
-55 c137 -52 191 -76 133 -61 -21 6 -22 5 -7 -4 9 -6 22 -8 28 -4 14 8 430
-146 423 -158 -3 -4 1 -5 9 -3 7 3 74 -17 148 -46 127 -48 174 -70 119 -55
-19 6 -21 5 -10 -3 8 -6 22 -8 32 -5 9 2 173 -54 364 -126 315 -118 406 -155
334 -136 -19 6 -21 5 -10 -3 8 -6 26 -7 39 -4 16 4 22 2 17 -5 -4 -7 -2 -10 6
-7 8 3 44 -6 81 -20 37 -14 70 -25 72 -25 3 0 5 10 5 23 0 18 2 19 10 7 6 -10
10 -11 10 -2 0 9 35 13 138 14 l137 2 -145 6 -145 6 148 2 c90 1 147 6 147 12
0 6 -7 10 -16 10 -30 0 -213 73 -207 83 4 6 1 7 -6 3 -15 -10 -213 63 -205 75
3 5 -1 6 -9 3 -8 -3 -30 2 -48 10 -24 11 -27 14 -9 10 21 -4 22 -3 7 6 -9 6
-22 8 -28 4 -15 -9 -430 147 -422 159 4 6 1 7 -6 3 -15 -10 -213 63 -205 75 3
5 -1 6 -9 3 -8 -3 -30 2 -48 10 -24 11 -27 14 -9 10 19 -4 22 -3 10 5 -8 6
-22 8 -31 5 -23 -7 -240 76 -232 89 3 6 1 7 -6 3 -14 -9 -193 53 -185 65 3 5
-1 6 -9 4 -7 -3 -74 17 -148 46 -127 48 -174 70 -119 55 19 -6 21 -5 10 3 -8
6 -23 8 -32 5 -9 -3 -70 15 -135 39 -117 44 -194 56 -225 35z"/>
<path d="M1940 4288 c-35 -128 -76 -278 -90 -333 -15 -55 -40 -145 -55 -200
-15 -55 -33 -122 -40 -150 -8 -27 -34 -125 -59 -218 -25 -92 -46 -171 -46
-175 0 -4 -5 0 -10 8 -8 11 -9 9 -5 -10 7 -29 -49 -241 -58 -222 -4 9 -5 9 -3
0 2 -10 47 -13 196 -13 l194 0 17 65 c9 36 28 106 42 155 13 50 41 154 63 232
l38 141 135 1 c75 1 155 6 179 12 25 5 52 7 61 5 9 -3 23 -1 31 5 12 8 9 9
-10 4 -14 -3 -1 6 29 20 29 14 57 23 61 20 5 -3 12 0 16 6 5 8 3 9 -6 4 -9 -6
-11 -4 -6 4 5 7 14 10 21 8 7 -3 39 22 71 56 l59 62 -65 -60 -64 -60 59 65
c77 86 80 88 70 71 -5 -10 -4 -12 4 -7 6 4 9 11 6 16 -2 4 13 45 34 91 22 46
45 103 52 127 9 30 15 39 22 30 6 -9 7 -7 3 6 -4 10 -1 56 6 103 11 74 10 92
-5 146 -10 34 -19 70 -21 80 -2 18 -64 87 -78 87 -4 0 12 -19 35 -41 l42 -42
-41 35 c-91 78 -211 98 -600 98 l-221 0 -63 -232z m541 -84 c55 -49 -12 -278
-93 -320 -17 -9 -66 -19 -108 -23 l-77 -7 23 86 c14 47 36 132 51 189 l27 104
79 -6 c54 -5 86 -12 98 -23z"/>
<path d="M2979 3890 c6 -3 -5 -12 -24 -19 -19 -7 -40 -9 -45 -6 -6 4 -9 1 -8
-6 2 -6 -3 -14 -11 -17 -9 -3 -11 0 -6 9 5 8 4 11 -1 6 -5 -5 -9 -14 -9 -19 0
-6 -6 -13 -14 -16 -9 -3 -11 0 -6 9 4 8 -13 -6 -39 -31 -26 -25 -52 -54 -58
-65 -6 -11 11 3 38 31 36 38 39 40 11 8 -20 -24 -45 -59 -54 -78 -9 -20 -21
-32 -26 -29 -6 3 -7 1 -3 -5 4 -6 -7 -60 -23 -119 -99 -351 -102 -365 -99
-428 2 -35 7 -61 12 -57 5 3 6 -2 3 -12 -4 -9 -3 -15 2 -12 10 6 51 -35 48
-49 -1 -5 5 -10 13 -10 8 -1 39 -8 69 -18 101 -32 270 -19 359 27 18 9 37 14
43 11 5 -4 8 -1 7 6 -2 6 3 14 11 17 9 3 11 0 6 -9 -4 -8 13 6 38 30 25 24 43
49 41 56 -3 7 0 16 7 21 8 5 10 3 4 -6 -5 -9 -4 -11 4 -6 6 4 9 11 6 16 -3 4
6 32 20 61 14 30 22 43 19 29 -4 -14 -3 -22 1 -17 5 4 9 27 9 52 l1 46 -133
-3 -133 -3 -24 -60 c-30 -72 -47 -87 -99 -83 -60 5 -65 21 -37 133 l24 95 219
0 c166 0 220 3 222 13 71 232 82 307 64 414 -6 32 -47 73 -66 66 -10 -4 -13
-2 -8 5 5 8 1 10 -10 5 -10 -3 -15 -2 -12 3 4 5 -6 10 -20 12 -55 7 -343 9
-333 2z m162 -180 c22 -12 25 -49 8 -116 l-11 -44 -84 0 -83 0 21 60 c30 90
90 131 149 100z"/>
<path d="M3805 3890 c-16 -5 -39 -8 -50 -5 -11 3 -14 2 -7 -1 9 -4 -1 -13 -28
-25 -23 -10 -46 -17 -50 -14 -5 3 -12 0 -16 -6 -5 -8 -3 -9 7 -4 12 8 12 6 0
-8 -16 -20 -36 -23 -25 -4 4 6 -9 -4 -29 -22 -36 -34 -47 -48 -27 -36 16 10
12 -5 -10 -32 -18 -23 -60 -123 -60 -143 0 -6 54 -10 133 -10 l132 0 27 59
c22 46 35 61 59 70 69 24 99 9 99 -50 0 -70 -49 -106 -195 -144 -38 -10 -99
-31 -134 -47 -73 -32 -75 -32 -65 -15 4 7 3 9 -2 4 -5 -5 -9 -14 -9 -20 0 -5
-6 -12 -14 -15 -9 -3 -11 0 -6 9 13 23 -75 -64 -98 -96 -11 -16 4 -5 34 26 30
31 37 37 17 14 -37 -43 -68 -98 -94 -164 -13 -33 -14 -34 -9 -6 4 20 2 25 -4
15 -5 -8 -5 -55 -1 -105 4 -49 6 -93 4 -97 -3 -4 1 -10 7 -14 8 -5 9 -3 4 7
-8 12 -6 12 8 0 20 -16 23 -36 5 -25 -8 4 -9 3 -5 -2 5 -5 16 -9 25 -9 9 0 17
-5 17 -12 0 -6 4 -15 9 -20 6 -5 6 -2 1 6 -6 11 -4 13 11 6 40 -17 157 -17
204 0 25 9 53 17 62 18 9 1 15 4 12 8 -2 4 8 15 22 24 15 9 24 12 20 7 -3 -6
-2 -13 3 -16 5 -4 12 4 14 16 3 17 5 14 6 -9 l1 -33 129 0 128 0 6 53 c3 28
21 111 41 182 20 72 43 155 51 185 8 30 26 96 40 145 38 140 58 246 47 257 -6
6 -8 -1 -5 -19 3 -22 1 -20 -11 10 -8 21 -20 46 -28 56 -7 9 -3 6 10 -7 12
-13 22 -20 22 -16 0 18 -43 52 -58 47 -10 -4 -13 -2 -8 5 5 8 1 10 -10 5 -10
-3 -15 -2 -12 3 8 12 -8 13 -177 19 -77 2 -153 0 -170 -5z m66 -577 c-15 -49
-33 -98 -39 -110 -43 -79 -162 -85 -162 -7 0 63 81 161 123 150 11 -3 16 -2
12 2 -3 3 16 16 42 28 26 12 49 23 49 23 1 1 -10 -38 -25 -86z"/>
<path d="M4768 3886 c3 -5 -2 -7 -11 -3 -10 4 -16 2 -14 -5 1 -6 -4 -13 -12
-16 -10 -3 -11 0 -5 9 7 12 5 12 -9 0 -9 -7 -15 -17 -12 -21 2 -4 -12 -22 -31
-41 -33 -31 -35 -32 -26 -9 5 14 12 37 16 53 l6 27 -127 0 -128 0 -89 -328
c-48 -180 -104 -382 -122 -449 -19 -67 -34 -124 -34 -128 0 -3 61 -4 136 -3
l137 3 39 145 c21 80 48 180 60 223 14 55 23 75 30 65 6 -8 7 -4 3 13 -9 38
21 132 51 160 22 21 35 24 98 23 l73 -1 31 116 c17 64 34 129 38 144 5 22 9
26 16 15 8 -10 9 -10 5 2 -3 11 -19 15 -64 15 -35 0 -59 -4 -55 -9z"/>
<path d="M5125 3889 c-16 -5 -39 -6 -50 -3 -17 4 -18 3 -5 -6 12 -10 11 -11
-8 -7 -14 3 -20 1 -15 -6 4 -7 0 -8 -11 -4 -11 5 -15 3 -10 -5 5 -8 2 -9 -9
-5 -10 4 -16 2 -14 -5 1 -6 -4 -13 -12 -16 -10 -3 -11 0 -5 9 7 12 5 12 -9 0
-20 -16 -23 -26 -4 -15 8 5 8 2 -2 -9 -14 -18 -36 -24 -26 -7 12 19 -1 10 -31
-22 -16 -17 -23 -28 -16 -24 18 11 15 -9 -5 -25 -14 -12 -16 -12 -8 0 5 10 4
12 -4 7 -6 -4 -9 -11 -7 -15 3 -4 -6 -36 -20 -70 -20 -50 -25 -76 -22 -131 2
-38 7 -66 12 -62 5 3 7 -2 3 -11 -4 -10 -2 -16 5 -14 6 1 13 -4 16 -12 3 -9 0
-11 -9 -6 -8 4 0 -7 18 -26 18 -19 47 -42 65 -52 32 -17 32 -17 8 0 -14 10
-38 31 -55 47 l-30 28 34 -26 c18 -15 47 -34 63 -42 16 -8 26 -19 23 -24 -4
-6 1 -7 11 -3 12 4 15 3 10 -5 -5 -8 -1 -10 10 -5 12 4 15 3 10 -5 -5 -8 -1
-10 10 -5 12 4 15 3 10 -5 -5 -8 -1 -10 10 -5 12 4 15 3 10 -5 -5 -8 -1 -10
10 -5 13 5 15 3 9 -7 -5 -9 -4 -11 4 -6 22 14 61 -22 61 -55 0 -41 -15 -66
-50 -84 -76 -39 -125 -6 -114 78 l7 48 -129 -3 -129 -3 -14 -55 c-13 -54 -9
-99 14 -154 6 -15 5 -17 -5 -11 -9 5 -11 4 -6 -4 4 -6 11 -9 15 -6 10 6 53
-39 45 -47 -3 -4 5 -11 18 -18 22 -11 22 -10 4 4 -26 21 -13 20 27 -1 25 -14
57 -17 152 -17 131 0 205 6 199 15 -5 9 66 40 77 33 5 -3 8 0 7 7 -2 6 3 14
11 17 9 3 11 0 6 -9 -4 -8 20 14 54 48 45 45 59 66 54 79 -4 12 -3 15 5 10 7
-4 10 -2 7 7 -3 7 1 30 10 50 20 47 20 149 0 188 -9 16 -13 33 -11 38 7 11
-22 36 -43 36 -9 0 -16 5 -16 12 0 6 -4 15 -9 20 -5 5 -6 2 -1 -6 5 -9 3 -12
-6 -9 -8 3 -14 11 -14 18 0 7 -7 15 -15 17 -13 4 -13 3 0 -6 30 -21 -2 -10
-73 25 -123 62 -144 98 -87 155 25 26 36 30 72 27 34 -2 43 -7 42 -20 -1 -10
3 -15 8 -12 6 4 7 -11 3 -40 l-7 -46 130 0 130 0 7 50 c4 27 3 69 -1 92 -5 24
-9 49 -9 55 0 7 -5 13 -10 14 -15 1 -45 31 -40 39 3 4 -3 14 -12 21 -14 12
-16 12 -8 0 6 -11 4 -13 -11 -6 -69 29 -98 34 -184 34 -52 -1 -108 -5 -125
-10z"/>
<path d="M5850 3890 c6 -4 -7 -14 -31 -23 -23 -9 -46 -14 -51 -11 -5 3 -7 0
-6 -7 2 -6 -3 -14 -11 -17 -10 -3 -11 0 -5 9 7 12 5 12 -9 0 -9 -7 -15 -17
-12 -21 2 -4 -7 -18 -20 -30 -14 -13 -25 -20 -25 -16 0 5 -6 3 -14 -4 -8 -6
-13 -17 -10 -25 3 -7 0 -16 -7 -21 -8 -5 -10 -3 -4 7 5 8 4 11 -1 6 -5 -5 -9
-14 -9 -20 -1 -29 -27 -87 -37 -81 -7 4 -8 2 -4 -5 7 -10 -13 -90 -82 -336
-26 -93 -33 -178 -19 -230 6 -23 5 -27 -3 -15 -10 13 -11 13 -7 0 2 -8 10 -15
17 -15 7 0 15 -6 18 -14 3 -9 0 -11 -9 -6 -8 5 -6 -1 4 -13 11 -11 25 -18 32
-16 7 3 16 0 21 -7 5 -8 3 -10 -6 -4 -8 5 -11 4 -6 -3 4 -6 14 -8 23 -5 9 4
14 2 11 -3 -8 -13 47 -18 187 -18 115 0 132 3 219 39 15 7 17 5 11 -6 -5 -8
-5 -11 1 -6 5 5 9 14 9 20 0 5 6 12 14 15 8 3 11 0 7 -7 -11 -17 0 -13 15 6
12 15 12 16 -1 8 -13 -8 -13 -7 -1 8 16 20 36 23 25 5 -4 -7 2 -4 14 6 23 20
30 32 12 21 -19 -12 -10 12 12 31 22 19 23 19 8 -1 -14 -18 -14 -19 2 -6 10 7
15 17 13 22 -3 4 5 30 19 57 21 42 38 96 89 285 7 28 12 35 19 25 6 -9 7 -6 3
9 -3 13 3 62 15 110 21 83 23 144 5 198 -6 17 -5 18 5 5 10 -13 11 -13 7 0 -2
8 -10 15 -18 15 -8 0 -14 8 -14 17 0 21 -12 33 -33 33 -9 0 -16 5 -15 12 2 8
-4 10 -14 6 -9 -4 -14 -2 -11 3 4 5 -6 10 -20 12 -55 7 -333 9 -322 2z m168
-224 c2 -17 -6 -64 -17 -105 -11 -42 -39 -143 -62 -226 -48 -177 -62 -197
-129 -193 l-45 3 2 45 c1 47 92 388 120 453 20 47 37 58 88 54 36 -2 40 -5 43
-31z"/>
<path d="M6835 3878 c-22 -11 -57 -36 -77 -56 l-37 -35 14 46 14 47 -129 0
c-72 0 -130 -2 -130 -5 0 -2 -14 -55 -31 -117 -36 -132 -62 -230 -94 -348 -13
-47 -44 -161 -69 -253 -25 -93 -46 -173 -46 -178 0 -5 58 -9 135 -9 74 0 135
2 135 4 0 3 57 213 146 541 30 112 44 142 70 154 41 18 73 14 79 -11 3 -13
-30 -155 -79 -333 -46 -170 -87 -321 -91 -335 l-6 -25 141 3 c126 3 140 5 140
21 0 9 6 37 14 62 8 24 35 123 61 219 26 96 52 195 60 220 57 196 82 325 64
336 -5 3 -6 -3 -3 -13 5 -17 5 -17 -6 0 -6 9 -9 21 -6 26 6 10 -28 44 -36 36
-3 -3 -21 2 -41 10 -52 22 -143 19 -192 -7z"/>
<path d="M1650 3819 c-11 -8 -9 -9 10 -3 59 16 5 -8 -115 -51 -71 -25 -149
-53 -172 -62 -23 -8 -47 -12 -54 -8 -7 5 -10 4 -5 -3 8 -13 -119 -57 -135 -46
-7 4 -9 3 -6 -3 8 -13 -448 -177 -464 -167 -8 5 -9 3 -4 -6 6 -10 1 -11 -21
-6 -19 4 -24 3 -15 -3 17 -11 -82 -46 -100 -35 -8 5 -9 3 -4 -6 6 -10 1 -11
-21 -6 -21 5 -25 4 -14 -4 10 -6 11 -10 3 -10 -19 0 -16 -21 13 -99 l26 -69
56 19 c30 11 63 17 71 14 9 -2 23 0 31 6 12 8 10 9 -7 4 -46 -13 -21 3 37 24
33 12 68 20 78 17 9 -3 24 -1 32 5 11 8 9 9 -10 3 -72 -19 11 14 209 86 141
51 232 78 245 75 14 -4 17 -3 8 3 -17 11 100 56 126 48 9 -3 24 -1 32 5 12 8
10 9 -7 4 -13 -3 -23 -4 -23 -2 0 3 47 22 105 42 58 21 105 42 105 47 0 5 4 6
10 3 5 -3 7 0 4 9 -3 8 4 49 16 91 12 42 20 78 18 80 -12 10 -45 13 -58 4z"/>
<path d="M7206 3783 c-3 -4 -6 -16 -5 -27 1 -18 2 -18 9 4 7 23 8 24 9 3 2
-42 -21 -126 -30 -112 -5 8 -9 10 -9 4 0 -19 15 -33 50 -49 24 -11 27 -14 10
-10 -21 4 -22 3 -7 -6 9 -6 22 -8 28 -4 14 8 430 -146 423 -158 -3 -4 1 -5 9
-3 7 3 74 -17 148 -46 127 -48 174 -70 119 -55 -19 6 -21 5 -10 -3 8 -6 22 -8
31 -5 10 2 65 -13 124 -36 59 -22 110 -40 112 -40 2 0 3 48 2 106 -1 59 -5
101 -9 94 -6 -9 -28 -5 -94 20 -47 18 -83 36 -80 41 3 5 -1 6 -9 3 -8 -3 -30
2 -48 10 -24 11 -27 14 -9 10 21 -4 22 -3 7 6 -9 6 -22 8 -28 4 -15 -9 -430
147 -422 159 4 6 1 7 -6 2 -7 -4 -62 12 -126 36 -63 24 -110 46 -106 49 5 3
-10 6 -34 7 -24 1 -46 -1 -49 -4z"/>
<path d="M456 2878 c-32 -133 -65 -271 -96 -400 -16 -71 -44 -185 -60 -255
-55 -232 -53 -226 -62 -206 -5 11 -6 7 -3 -13 4 -18 -7 -84 -25 -160 -17 -71
-40 -167 -51 -214 -11 -47 -40 -166 -64 -265 -23 -99 -51 -216 -61 -259 -14
-60 -20 -74 -24 -55 -4 13 -7 -72 -9 -189 l-2 -212 221 0 c168 0 222 3 225 13
2 6 22 89 44 182 39 163 73 309 127 535 14 58 29 122 35 143 l10 37 77 -1
c137 -1 182 -33 190 -136 4 -59 -21 -197 -87 -473 -34 -142 -46 -237 -37 -275
l6 -25 277 2 277 3 7 32 c3 18 3 30 -2 27 -15 -9 -22 47 -15 126 3 42 25 171
47 286 54 277 75 399 82 459 2 28 3 41 0 31 -4 -16 -8 -13 -18 15 -7 18 -16
43 -20 53 -7 15 -5 17 6 11 8 -5 5 1 -5 13 -23 26 -34 29 -15 5 7 -10 -2 -4
-21 13 -19 18 -50 39 -69 49 l-34 17 44 25 c24 14 51 32 60 39 20 17 32 18 23
2 -4 -7 5 -2 19 11 33 30 36 42 5 15 -13 -10 -1 5 27 34 52 55 76 72 34 25
-23 -27 -23 -27 9 1 32 30 42 43 21 30 -7 -4 -10 -1 -7 7 3 8 10 14 16 14 5 0
14 4 19 9 5 5 2 6 -6 1 -9 -5 -12 -3 -9 6 3 8 11 13 17 11 7 -1 10 2 6 7 -3 6
5 32 19 58 104 206 141 526 75 655 -10 21 -18 42 -17 47 2 5 -1 9 -5 9 -14 0
-67 54 -62 62 3 4 -3 14 -12 21 -14 12 -16 12 -9 0 6 -9 5 -12 -5 -9 -8 3 -13
10 -12 16 2 7 -4 9 -14 5 -11 -4 -14 -3 -9 5 5 8 1 10 -10 5 -13 -5 -15 -3 -9
7 5 8 4 11 -3 6 -6 -3 -31 -1 -57 6 -33 9 -41 14 -28 19 10 3 -201 7 -468 8
l-486 2 -17 -73z m440 -380 l-5 -33 11 34 12 33 85 -6 c168 -14 200 -58 166
-231 -20 -100 -49 -181 -64 -178 -6 2 -8 -4 -5 -12 9 -23 -74 -101 -121 -114
-22 -6 -79 -11 -127 -11 l-86 0 14 63 c67 292 88 370 96 351 5 -13 6 -9 2 12
-5 29 13 124 23 124 3 0 2 -15 -1 -32z"/>
<path d="M5150 2418 c-47 -5 -95 -10 -107 -11 -12 -1 -21 -6 -20 -11 1 -5 -4
-11 -12 -14 -9 -3 -11 0 -6 9 5 8 4 11 -1 6 -5 -5 -9 -14 -9 -19 0 -6 -6 -13
-14 -16 -8 -3 -11 0 -7 7 13 20 0 12 -30 -21 -16 -17 -23 -28 -15 -23 9 5 12
3 9 -6 -3 -8 -11 -13 -17 -11 -7 1 -10 -2 -7 -7 3 -5 1 -20 -4 -33 l-11 -23 5
24 c3 17 2 21 -6 13 -7 -7 -5 -26 5 -63 9 -29 14 -56 12 -59 -3 -4 7 -18 22
-31 14 -13 23 -18 18 -10 -5 9 -3 12 6 9 8 -3 13 -9 12 -14 -3 -17 171 -17
212 0 45 19 48 19 39 4 -4 -7 -3 -8 5 -4 6 4 8 12 5 18 -5 7 -1 9 9 5 8 -3 21
1 27 9 7 8 9 14 5 14 -4 0 -2 7 5 15 7 8 16 13 20 10 4 -3 14 3 21 12 12 14
12 16 0 9 -9 -6 -12 -5 -9 5 3 8 10 13 15 12 6 -1 8 10 6 25 -3 23 -2 24 6 7
15 -31 12 -6 -4 49 -17 57 -35 79 -76 96 -16 7 -26 16 -23 21 3 5 4 8 2 7 -2
0 -41 -5 -88 -10z"/>
<path d="M4463 2397 c7 -5 3 -7 -11 -4 -14 3 -20 1 -16 -5 5 -7 -2 -9 -19 -4
-14 3 -29 2 -32 -4 -3 -6 1 -7 12 -4 17 5 17 5 0 -6 -9 -6 -21 -9 -26 -5 -5 3
-13 0 -17 -6 -5 -8 -3 -9 6 -4 9 6 11 4 6 -4 -5 -7 -14 -10 -21 -7 -7 2 -32
-16 -56 -41 -24 -25 -38 -42 -30 -38 9 5 12 3 9 -6 -3 -8 -10 -14 -15 -14 -6
0 -15 -4 -20 -9 -5 -5 -3 -6 5 -2 16 10 16 7 -12 -55 -14 -30 -34 -88 -44
-129 l-19 -75 -74 -3 -74 -3 -33 -127 c-18 -70 -32 -133 -32 -139 0 -9 21 -13
70 -13 39 0 70 -3 70 -6 0 -6 -99 -396 -172 -674 -38 -148 -57 -205 -44 -130
5 29 4 31 -4 12 -5 -13 -7 -34 -4 -46 3 -12 -4 -57 -15 -99 -12 -42 -21 -81
-21 -87 0 -7 64 -10 192 -8 l192 3 32 125 c18 69 69 269 114 445 45 176 90
352 100 390 l17 70 80 3 81 3 33 135 c23 93 36 129 41 117 7 -16 8 -16 5 2 -2
18 -11 20 -86 23 -70 2 -82 5 -77 18 3 9 6 21 6 27 0 9 2 9 8 0 4 -6 7 9 7 34
0 63 26 83 111 83 38 0 64 4 64 11 0 5 4 7 10 4 5 -3 7 0 4 8 -4 11 27 156 52
240 6 18 -3 19 -179 15 -103 -1 -180 -7 -174 -11z"/>
<path d="M2225 2010 c-128 -8 -184 -18 -267 -50 -28 -10 -56 -16 -61 -13 -6 3
-7 1 -3 -5 7 -12 -29 -36 -43 -28 -5 3 -15 -2 -22 -12 -13 -16 -12 -16 6 -2
20 15 20 14 1 -8 -11 -12 -26 -21 -34 -20 -7 2 -30 -17 -50 -41 -21 -25 -31
-41 -23 -37 9 6 12 4 9 -5 -3 -8 -10 -14 -16 -14 -5 0 -14 -4 -19 -9 -5 -5 -2
-6 6 -1 9 5 12 3 9 -6 -3 -8 -11 -14 -18 -14 -7 0 -15 -7 -17 -15 -4 -13 -3
-13 6 0 14 20 14 7 0 -24 -7 -14 -16 -23 -22 -19 -6 3 -7 1 -3 -6 4 -6 2 -28
-4 -47 -9 -27 -15 -33 -21 -23 -7 10 -8 6 -4 -11 4 -15 -5 -70 -20 -125 -133
-498 -140 -534 -129 -613 5 -31 8 -65 8 -74 0 -9 4 -16 9 -15 5 1 12 -4 15
-12 3 -9 0 -11 -9 -6 -8 5 -11 4 -6 -1 5 -5 14 -9 20 -9 5 0 12 -6 15 -14 3
-9 0 -11 -9 -6 -8 5 -3 -4 10 -18 25 -27 37 -35 26 -17 -10 17 12 11 26 -7 12
-15 12 -16 -1 -8 -9 5 -12 4 -7 -1 5 -5 14 -9 20 -9 7 0 43 -11 81 -23 135
-44 325 -39 460 12 108 41 103 39 86 26 -13 -10 -13 -11 0 -7 8 2 15 10 15 17
0 7 6 15 14 18 9 3 11 0 6 -9 -5 -8 -4 -11 1 -6 5 5 9 14 9 20 0 7 8 12 17 12
9 0 33 16 53 35 41 39 86 98 66 85 -9 -5 -12 -3 -9 6 3 8 10 13 16 12 7 -2 9
4 5 14 -4 10 -2 14 5 9 6 -3 14 -1 18 5 4 8 3 9 -4 5 -16 -9 -15 -1 2 32 24
46 42 108 117 397 67 259 72 287 71 375 -2 123 -5 149 -16 142 -5 -3 -7 2 -3
11 3 9 1 19 -5 23 -7 5 -8 2 -3 -6 6 -9 4 -11 -4 -6 -7 5 -10 14 -7 21 5 14
-47 69 -56 59 -9 -9 -49 16 -43 26 3 6 -1 7 -9 4 -8 -3 -23 -1 -33 6 -16 9
-15 10 7 5 19 -5 21 -4 10 4 -8 6 -24 8 -35 5 -11 -3 -38 0 -60 5 l-40 11 45
-5 c32 -3 39 -1 25 5 -11 5 -29 8 -40 8 -11 -1 -74 -4 -140 -8z m8 -311 c9
-12 17 -32 17 -46 0 -26 -151 -628 -169 -676 -6 -16 -15 -26 -20 -23 -4 3 -17
-4 -27 -17 l-19 -22 23 19 c12 11 22 14 22 8 0 -22 -59 -43 -113 -40 -46 3
-53 6 -65 31 -13 26 -8 52 53 290 114 448 109 432 127 421 7 -5 8 -2 4 5 -5 7
0 21 11 33 44 50 121 58 156 17z"/>
<path d="M5939 2011 c10 -7 5 -11 -18 -16 -43 -9 -144 -78 -185 -127 -24 -28
-33 -34 -29 -19 3 12 8 21 12 21 3 0 6 12 6 28 1 15 4 37 9 50 l7 22 -182 -2
-183 -3 -7 -30 c-3 -16 -38 -154 -77 -305 -192 -745 -235 -918 -240 -947 l-4
-33 186 0 c184 0 187 0 196 23 5 12 34 119 64 237 30 118 82 323 116 455 33
132 66 251 73 264 31 62 139 82 164 30 14 -29 23 10 -148 -659 -74 -287 -102
-383 -85 -290 5 31 5 32 -4 10 -8 -17 -8 -32 -1 -48 11 -22 11 -22 198 -20
l187 3 13 45 c8 25 45 167 83 315 38 149 96 376 129 506 63 243 71 306 46 349
-18 31 -19 43 -2 34 6 -4 -4 10 -23 30 -19 21 -44 42 -55 48 -11 6 -2 -7 21
-28 22 -21 29 -29 15 -17 -39 33 -115 63 -174 69 -28 3 -68 7 -87 9 -22 3 -30
1 -21 -4z"/>
<path d="M6816 2011 c12 -2 1 -10 -35 -22 -29 -10 -58 -16 -64 -12 -6 3 -7 1
-3 -5 3 -6 -3 -16 -16 -23 -12 -6 -43 -30 -68 -53 -26 -22 -20 -14 14 19 34
33 52 53 41 45 -46 -32 -113 -104 -108 -115 2 -7 -1 -16 -8 -21 -8 -4 -10 -3
-5 4 11 18 0 14 -15 -5 -12 -14 -12 -16 0 -9 9 6 12 5 9 -5 -3 -8 -11 -13 -17
-11 -7 1 -10 -2 -6 -8 9 -14 -14 -52 -27 -44 -6 4 -8 3 -4 -4 3 -5 -7 -44 -24
-85 -16 -41 -64 -209 -106 -374 -69 -268 -77 -308 -78 -398 -1 -120 6 -185 18
-177 5 3 6 -2 3 -12 -5 -11 -3 -15 5 -10 7 5 9 2 6 -7 -3 -9 3 -26 14 -40 l20
-24 -17 30 -18 30 31 -29 c17 -16 30 -34 29 -39 -1 -6 5 -11 13 -12 8 0 35 -7
59 -14 46 -13 225 -11 239 4 4 4 -4 5 -18 1 -14 -4 -3 5 23 19 26 14 52 23 58
20 5 -4 8 -2 7 3 -2 5 18 25 45 45 26 20 47 32 47 27 0 -6 -5 -10 -11 -10 -5
0 -7 -5 -4 -10 6 -10 -46 -234 -65 -278 -6 -13 -14 -21 -19 -18 -5 3 -15 -2
-22 -12 -13 -15 -12 -16 4 -3 9 7 17 9 17 4 0 -27 -127 -52 -174 -34 -28 11
-28 13 -24 71 l4 60 -202 0 -203 0 -5 -32 c-8 -47 -12 -218 -5 -207 3 5 13 -7
22 -27 10 -19 15 -39 12 -43 -2 -5 7 -19 22 -32 14 -13 23 -18 19 -11 -10 17
-4 15 43 -11 23 -13 38 -27 34 -32 -5 -4 -3 -5 3 -2 6 3 46 0 90 -8 157 -28
353 -12 475 40 35 15 72 28 81 28 9 1 16 5 15 10 -1 5 4 12 12 15 9 3 11 0 6
-9 -5 -8 -4 -11 1 -6 5 5 9 14 9 20 0 5 6 12 14 15 8 3 11 0 7 -7 -14 -22 1
-10 59 50 33 34 54 58 46 54 -9 -5 -12 -3 -9 6 3 8 10 14 16 14 5 0 14 4 19 9
5 5 2 6 -6 1 -9 -5 -12 -3 -9 6 3 8 10 13 16 12 7 -2 9 4 5 14 -4 10 -2 14 5
9 6 -3 14 -1 18 5 5 8 3 9 -6 4 -10 -6 -11 -4 -5 11 33 80 51 141 108 374 36
146 118 475 181 732 64 256 116 473 116 482 0 15 -20 16 -187 14 l-187 -3 -17
-68 c-9 -38 -20 -72 -24 -75 -4 -4 -4 3 0 16 4 15 1 32 -10 50 -25 39 -67 82
-75 77 -4 -2 -33 6 -65 19 -36 15 -51 25 -40 28 10 1 -24 3 -75 3 -51 0 -85
-2 -74 -4z m224 -371 c14 -14 20 -33 20 -67 0 -62 -115 -526 -143 -578 -32
-57 -82 -88 -132 -82 -83 11 -84 50 -4 368 68 274 78 301 121 347 26 26 40 32
75 32 30 0 49 -6 63 -20z"/>
<path d="M3225 2000 c15 -5 10 -8 -20 -13 -22 -4 -69 -20 -103 -37 -35 -16
-68 -28 -72 -25 -5 3 -12 0 -16 -6 -5 -8 -3 -9 6 -4 9 6 11 4 6 -4 -5 -7 -14
-10 -21 -7 -7 2 -23 -7 -36 -22 l-24 -27 30 25 c17 13 10 3 -15 -23 -45 -48
-68 -65 -34 -24 l19 22 -22 -19 c-13 -10 -20 -23 -17 -27 7 -12 -23 -54 -38
-54 -6 0 -13 -7 -15 -15 -4 -13 -3 -13 7 0 14 18 13 14 -24 -75 -24 -58 -43
-130 -141 -512 -42 -166 -46 -189 -41 -265 7 -112 10 -127 20 -125 5 1 11 -4
14 -12 3 -9 0 -11 -9 -6 -8 4 4 -11 25 -33 22 -23 43 -39 47 -36 5 3 27 -5 50
-16 50 -26 170 -50 247 -50 96 0 229 27 299 59 36 17 69 28 74 25 5 -3 8 0 7
7 -2 6 3 14 11 17 9 3 11 0 6 -9 -5 -8 1 -6 13 5 12 10 20 22 17 26 -5 9 49
62 57 55 2 -3 13 5 24 17 10 12 13 18 5 13 -9 -5 -12 -3 -9 6 3 8 10 14 15 14
6 0 15 4 20 9 5 5 2 6 -6 1 -9 -5 -12 -3 -9 6 3 8 11 13 17 11 7 -1 10 2 7 7
-7 11 24 82 33 77 3 -2 6 6 7 17 0 12 15 74 32 137 128 477 145 564 130 650
-5 30 -11 68 -13 84 -2 16 -11 36 -20 45 -16 15 -16 13 0 -14 l18 -30 -26 30
c-14 16 -23 33 -20 38 2 4 -1 6 -9 5 -7 -2 -12 2 -11 9 1 6 -5 17 -14 25 -14
11 -16 11 -9 -1 6 -9 4 -12 -5 -9 -8 3 -14 11 -14 18 0 7 -7 15 -15 17 -13 4
-13 3 0 -7 13 -10 12 -11 -3 -6 -10 3 -21 6 -23 6 -3 0 -2 5 2 12 4 6 3 8 -3
5 -6 -4 -25 -4 -43 -1 -17 4 -27 10 -21 14 6 3 -73 7 -176 7 -103 0 -179 -3
-168 -7z m148 -281 c30 -16 37 -28 37 -71 0 -30 -62 -287 -144 -599 -30 -117
-61 -149 -143 -149 -60 0 -83 17 -83 61 0 33 156 653 171 682 6 10 15 14 21
11 7 -4 8 -2 4 5 -10 16 12 41 49 57 38 17 60 17 88 3z"/>
<path d="M4813 1979 c-6 -6 -9 -17 -6 -24 2 -8 -3 -42 -12 -77 -9 -35 -48
-187 -86 -338 -39 -151 -104 -408 -145 -570 -42 -162 -77 -299 -77 -305 -1 -6
67 -11 185 -13 170 -2 188 -1 196 15 5 10 33 110 62 223 28 113 69 273 90 355
107 415 180 705 180 715 0 7 -60 10 -195 8 -107 -2 -191 0 -187 4 4 4 93 9
197 11 l190 2 -190 3 c-131 1 -195 -2 -202 -9z"/>
<path d="M2316 421 c33 -20 74 -67 74 -84 0 -5 -10 5 -23 24 -34 51 -80 71
-152 66 -33 -2 -69 -8 -79 -12 -15 -6 -17 -5 -11 5 5 9 4 11 -4 6 -6 -4 -9
-11 -6 -15 5 -9 -29 -44 -36 -36 -5 5 -8 -19 -9 -72 0 -73 8 -97 33 -98 7 0
28 -6 47 -12 19 -6 61 -19 93 -28 49 -13 57 -19 57 -40 0 -49 -84 -62 -125
-20 -14 13 -25 29 -25 35 0 5 -20 10 -45 10 l-46 0 4 -47 c3 -27 9 -48 13 -48
16 0 34 -16 29 -25 -12 -19 28 -27 130 -26 88 1 110 4 110 15 0 8 6 16 14 19
8 3 11 0 7 -7 -11 -17 0 -13 15 6 12 14 12 16 0 9 -9 -6 -12 -5 -9 5 3 8 10
13 15 12 5 -1 9 31 9 72 -1 59 -5 78 -20 92 -10 10 -15 12 -11 4 5 -9 3 -12
-6 -9 -8 3 -13 11 -11 17 1 7 -2 10 -7 6 -10 -6 -117 18 -158 35 -32 14 -30
48 5 61 36 14 84 0 97 -29 8 -18 18 -22 57 -22 35 0 48 4 48 14 0 8 3 22 6 30
7 18 -74 106 -97 106 -8 0 0 -9 17 -19z"/>
<path d="M3113 427 c7 -5 3 -7 -11 -4 -13 3 -20 1 -16 -5 3 -5 -2 -8 -12 -6
-11 2 -18 -2 -17 -8 1 -6 -10 -22 -25 -35 l-27 -24 20 25 20 25 -22 -18 c-13
-11 -19 -25 -16 -35 5 -11 3 -13 -7 -7 -8 5 -11 4 -7 -2 4 -6 2 -35 -3 -64 -7
-36 -6 -72 0 -109 6 -30 12 -64 14 -75 1 -11 7 -20 12 -20 6 0 25 -12 43 -27
18 -16 29 -28 24 -28 -5 0 -15 6 -23 12 -12 11 -12 10 -2 -3 9 -12 33 -16 113
-16 56 -1 96 3 89 7 -8 5 -7 9 5 14 24 9 27 8 19 -6 -4 -7 5 -2 19 11 28 25
35 37 16 25 -7 -4 -10 -1 -7 7 3 8 10 14 15 14 6 0 15 4 20 9 5 6 2 6 -6 1
-11 -6 -13 -4 -8 9 24 62 23 66 -29 66 -45 0 -50 -3 -64 -32 -25 -54 -95 -56
-134 -5 -30 40 -30 144 0 184 37 49 144 39 144 -13 0 -16 37 -27 71 -22 25 3
31 33 14 72 -7 15 -5 17 6 11 12 -8 12 -6 0 8 -7 9 -17 15 -21 12 -4 -2 -16 5
-26 18 -19 21 -19 21 1 7 18 -14 19 -14 7 2 -8 10 -20 14 -29 11 -10 -4 -14
-2 -10 4 5 7 -1 9 -15 6 -14 -3 -18 -1 -11 4 6 4 -20 8 -62 8 -42 0 -68 -4
-62 -8z"/>
<path d="M4106 421 c-4 -5 4 -7 16 -5 23 4 23 4 0 -6 -13 -5 -29 -7 -34 -3 -6
3 -8 1 -5 -4 6 -10 -31 -51 -40 -45 -3 2 -8 0 -11 -4 -4 -4 -1 -4 7 1 10 6 11
2 5 -16 -13 -35 -10 -154 3 -152 12 3 42 -27 42 -42 0 -5 5 -11 13 -13 9 -3
10 -1 1 5 -6 4 17 8 53 8 68 0 79 -10 51 -49 -17 -23 -70 -18 -75 7 -3 13 3
17 29 17 18 0 30 2 27 5 -3 3 -38 2 -77 -1 -78 -8 -80 -10 -56 -68 7 -15 5
-17 -6 -11 -8 5 -4 -3 9 -17 21 -23 30 -25 107 -25 80 0 85 1 112 30 15 17 22
27 14 22 -9 -5 -12 -3 -9 6 3 8 9 13 14 12 5 -1 10 8 11 20 0 12 4 50 8 84 8
68 -5 141 -33 183 -9 14 -17 29 -17 34 0 5 -9 10 -20 12 -11 1 -44 7 -74 13
-64 13 -59 13 -65 2z"/>
<path d="M4743 417 c7 -5 3 -7 -10 -4 -12 3 -21 0 -20 -5 1 -6 -4 -13 -12 -16
-9 -3 -11 0 -6 9 5 8 -1 5 -13 -5 -25 -22 -30 -35 -6 -15 12 9 11 4 -4 -22
-21 -37 -46 -128 -37 -137 3 -3 5 3 6 14 0 16 2 15 10 -5 5 -14 8 -30 5 -37
-2 -6 7 -22 21 -35 21 -21 33 -23 81 -21 31 2 63 9 70 15 11 8 12 5 6 -19 -4
-16 -11 -35 -17 -42 -14 -17 -64 -15 -71 4 -9 24 -8 24 26 24 17 0 29 2 26 5
-3 3 -37 2 -76 -1 l-71 -7 3 -36 c2 -20 6 -34 9 -31 7 7 47 -31 42 -40 -2 -4
31 -7 75 -7 46 0 78 4 77 10 -1 5 4 12 12 15 8 3 11 0 7 -7 -11 -17 0 -13 15
6 12 14 12 16 0 9 -9 -6 -12 -4 -9 5 3 8 10 14 15 14 6 0 15 4 20 9 5 5 3 6
-4 2 -17 -9 -16 -6 3 40 16 38 16 166 -1 224 -5 20 -4 22 5 10 10 -13 11 -13
7 0 -2 8 -10 15 -18 15 -8 0 -14 8 -14 17 0 10 -6 23 -14 30 -10 10 -12 10 -7
1 9 -16 4 -16 -29 -1 -14 6 -21 14 -16 17 5 3 -15 6 -44 6 -31 0 -48 -3 -42
-8z"/>
<path d="M2438 213 l-3 -208 55 0 55 0 -3 208 -3 207 -49 0 -49 0 -3 -207z"/>
<path d="M2600 216 l0 -204 51 -4 c28 -1 52 -1 54 3 4 6 7 188 4 209 -2 8 -6
-37 -9 -100 l-6 -115 -2 135 -2 135 36 -63 c19 -34 32 -67 28 -74 -4 -7 -3 -8
4 -4 6 4 18 -6 27 -23 17 -34 20 -53 4 -31 -9 13 -10 13 -6 0 2 -8 9 -14 16
-13 6 2 18 -12 26 -30 l16 -32 -22 25 -21 25 14 -25 c9 -14 18 -24 22 -22 3 1
29 2 56 2 l50 0 0 205 0 205 -50 0 -50 0 0 -122 -1 -123 -24 40 c-14 22 -23
46 -20 53 3 7 1 11 -4 7 -5 -3 -28 29 -51 70 l-41 75 -50 0 -49 0 0 -204z"/>
<path d="M3398 213 l-3 -208 160 0 160 0 -4 42 -3 43 -109 0 -109 0 0 45 0 45
100 0 100 0 0 45 0 45 -100 0 -100 0 0 35 0 35 110 0 110 0 0 40 0 40 -155 0
-154 0 -3 -207z"/>
<path d="M3870 401 c0 -27 -37 -51 -77 -51 -31 0 -33 -2 -33 -35 l0 -35 50 0
50 0 -2 -137 -2 -138 -3 133 -4 132 -42 -2 -42 -1 37 -4 37 -4 3 -126 3 -126
60 0 60 0 0 204 1 204 -6 -205 -6 -205 -2 208 -2 207 -40 0 c-33 0 -40 -3 -40
-19z"/>
<path d="M4340 370 l0 -40 92 0 c50 0 88 -3 85 -6 -4 -4 -44 -7 -89 -7 l-83
-1 78 -3 c42 -2 77 -5 77 -7 0 -2 -16 -29 -35 -61 -37 -62 -60 -123 -73 -195
l-9 -45 51 5 c48 5 51 7 54 35 5 48 32 136 41 131 4 -3 7 5 7 17 -1 12 4 21
11 20 7 -2 10 3 7 10 -2 7 14 38 36 69 26 37 40 67 40 87 l0 31 -145 0 -145 0
0 -40z"/>
</g>
</svg>
